<?xml version="1.0" encoding="iso-8859-1"?>
<!-- Uploaded to: SVG Repo, www.svgrepo.com, Generator: SVG Repo Mixer Tools -->
<svg fill="#000000" height="800px" width="800px" version="1.1" id="Capa_1" xmlns="http://www.w3.org/2000/svg" xmlns:xlink="http://www.w3.org/1999/xlink" 
	 viewBox="0 0 430.477 430.477" xml:space="preserve">
<path id="XMLID_50_" d="M210.953,198.917h-18v-48.233h18V198.917z M174.918,5.032h-18v48.233h18V5.032z M174.918,150.684h-18v48.233
	h18V150.684z M174.918,77.124h-18v48.232h18V77.124z M210.953,77.124h-18v48.232h18V77.124z M246.988,5.032h-18v48.233h18V5.032z
	 M138.883,5.032h-18v48.233h18V5.032z M246.988,77.124h-18v48.232h18V77.124z M210.953,5.032h-18v48.233h18V5.032z M246.988,150.684
	h-18v48.233h18V150.684z M66.813,5.032h-18v48.233h18V5.032z M157.979,374.15h-20.156v18h20.156V374.15z M66.813,150.684h-18v48.233
	h18V150.684z M66.813,77.124h-18v48.232h18V77.124z M430.477,273.971v149.571l-79.517-40.931h-37.921l-79.516,40.931V273.971
	l79.516,40.931h37.921L430.477,273.971z M301.858,329.391l-50.335-25.91v90.552l50.335-25.91v-10.366h-26.837v-18h26.837V329.391z
	 M344.141,332.901h-24.282v31.71h24.282V332.901z M412.477,303.48l-50.336,25.91v10.365h31.337v18h-31.337v10.366l50.336,25.91
	V303.48z M295.8,244.645H190.965v180.8h-86.13v-180.8H0V20.747h28.845v18H18v187.897h259.8V38.747h-10.847v-18H295.8V244.645z
	 M172.965,244.645h-50.13v162.8h50.13V244.645z M138.883,77.124h-18v48.232h18V77.124z M102.847,5.032h-18v48.233h18V5.032z
	 M102.847,150.684h-18v48.233h18V150.684z M138.883,150.684h-18v48.233h18V150.684z M102.847,77.124h-18v48.232h18V77.124z"/>
</svg>