<?xml version="1.0" encoding="iso-8859-1"?>

<!DOCTYPE svg PUBLIC "-//W3C//DTD SVG 1.1//EN" "http://www.w3.org/Graphics/SVG/1.1/DTD/svg11.dtd">
<!-- Uploaded to: SVG Repo, www.svgrepo.com, Generator: SVG Repo Mixer Tools -->
<svg fill="#000000" version="1.1" id="Layer_1" xmlns="http://www.w3.org/2000/svg" xmlns:xlink="http://www.w3.org/1999/xlink" 
	 width="800px" height="800px" viewBox="0 0 50.596 49.994"
	 xml:space="preserve">
<path d="M48.648,15.387H35.026V1.925C35.026,0.862,34.159,0,33.083,0H17.512c-1.074,0-1.941,0.862-1.941,1.925v13.461H1.948
	C0.873,15.387,0,16.245,0,17.307v15.385c0,1.062,0.873,1.916,1.947,1.916h13.623v13.463c0,1.06,0.867,1.923,1.941,1.923h15.571
	c1.075,0,1.941-0.863,1.941-1.923V34.608h13.622c1.075,0,1.948-0.854,1.948-1.916V17.307C50.596,16.245,49.723,15.387,48.648,15.387
	z"/>
</svg>